<svg width="20" height="14" viewBox="0 0 20 14" fill="none" xmlns="http://www.w3.org/2000/svg">
<path fill-rule="evenodd" clip-rule="evenodd" d="M0.375 6.99998C0.375 6.81765 0.447433 6.64278 0.576364 6.51385C0.705295 6.38492 0.880164 6.31248 1.0625 6.31248H17.2779L12.9508 1.98673C12.8217 1.85764 12.7491 1.68255 12.7491 1.49998C12.7491 1.31742 12.8217 1.14233 12.9508 1.01323C13.0798 0.884139 13.2549 0.811615 13.4375 0.811615C13.6201 0.811615 13.7952 0.884139 13.9242 1.01323L19.4242 6.51323C19.4883 6.5771 19.5391 6.65296 19.5737 6.73649C19.6084 6.82001 19.6262 6.90955 19.6262 6.99998C19.6262 7.09041 19.6084 7.17995 19.5737 7.26348C19.5391 7.347 19.4883 7.42287 19.4242 7.48673L13.9242 12.9867C13.7952 13.1158 13.6201 13.1884 13.4375 13.1884C13.2549 13.1884 13.0798 13.1158 12.9508 12.9867C12.8217 12.8576 12.7491 12.6825 12.7491 12.5C12.7491 12.3174 12.8217 12.1423 12.9508 12.0132L17.2779 7.68748H1.0625C0.880164 7.68748 0.705295 7.61505 0.576364 7.48612C0.447433 7.35719 0.375 7.18232 0.375 6.99998Z" fill="#0033AB"/>
</svg>
